#N canvas 905 334 450 300 10;
#X obj 111 21 inlet;
#X obj 83 212 sig~;
#X obj 26 73 bang~;
#X msg 118 71 1;
#X obj 81 115 int;
#X msg 161 71 0;
#X obj 113 50 bng 15 250 50 0 empty empty empty 17 7 0 10 -262144 -1
-1;
#X obj 83 234 outlet~;
#X obj 81 137 t b f;
#X connect 0 0 6 0;
#X connect 1 0 7 0;
#X connect 2 0 4 0;
#X connect 3 0 4 1;
#X connect 4 0 8 0;
#X connect 5 0 4 1;
#X connect 6 0 3 0;
#X connect 8 0 5 0;
#X connect 8 1 1 0;
