#N canvas 309 111 1028 583 10;
#X obj 433 355 dac~, f 14;
#X obj 342 24 bng 15 250 50 0 empty empty empty 17 7 0 10 -262144 -1
-1;
#X obj 344 53 Click~;
#X obj 461 236 delread4~ delayone;
#X obj 393 139 delwrite~ delayone 500;
#X obj 460 208 sig~ 500;
#X obj 609 146 *~ 0.9;
#X obj 432 36 hsl 128 15 0 127 0 0 empty empty empty -2 -8 0 10 -262144
-1 -1 10700 1;
#X obj 429 60 / 127;
#X obj 429 82 * 500;
#X obj 609 24 hsl 128 15 0 127 0 0 empty empty empty -2 -8 0 10 -262144
-1 -1 9900 1;
#X obj 607 61 / 127;
#X obj 607 83 * 1.5;
#X floatatom 731 93 5 0 0 0 - - -, f 5;
#X floatatom 455 105 5 0 0 0 - - -, f 5;
#X obj 449 272 +~;
#X obj 451 315 Glyph~;
#X obj 889 162 tgl 15 0 empty empty empty 17 7 0 10 -262144 -1 -1 1
1;
#X obj 726 204 SectionStart~ DelayGlyph;
#X obj 729 288 SectionEnd~ DelayGlyph;
#X obj 740 234 Glyph~;
#X obj 742 258 clip~ -0.5 0.5;
#X obj 762 367 SectionStart~ randEQ;
#X obj 761 416 SectionEnd~ randEQ;
#X obj 904 333 tgl 15 0 empty empty empty 17 7 0 10 -262144 -1 -1 1
1;
#X obj 575 116 receive~ loopBack;
#X obj 770 451 send~ loopBack;
#X obj 769 391 Upper~;
#X obj 917 367 bng 15 250 50 0 empty empty empty 17 7 0 10 -262144
-1 -1;
#X obj 223 393 writesf~;
#X msg 230 283 open tmp.wav;
#X msg 239 329 start;
#X msg 292 329 stop;
#X connect 1 0 2 0;
#X connect 2 0 4 0;
#X connect 2 0 15 0;
#X connect 3 0 15 1;
#X connect 3 0 18 0;
#X connect 5 0 3 0;
#X connect 6 0 4 0;
#X connect 7 0 8 0;
#X connect 8 0 9 0;
#X connect 9 0 5 0;
#X connect 9 0 14 0;
#X connect 10 0 11 0;
#X connect 11 0 12 0;
#X connect 12 0 6 1;
#X connect 12 0 13 0;
#X connect 15 0 16 0;
#X connect 16 0 0 0;
#X connect 16 0 0 1;
#X connect 16 0 29 0;
#X connect 17 0 18 1;
#X connect 18 0 20 0;
#X connect 19 0 22 0;
#X connect 20 0 21 0;
#X connect 21 0 19 0;
#X connect 22 0 27 0;
#X connect 23 0 26 0;
#X connect 24 0 22 1;
#X connect 25 0 6 0;
#X connect 27 0 23 0;
#X connect 28 0 27 1;
#X connect 30 0 29 0;
#X connect 31 0 29 0;
#X connect 32 0 29 0;
