#N canvas 897 136 450 300 10;
#X obj 70 97 expr~ if($f2 > 1 \, $v1 * ($f2 / 1) \, $v1);
#X obj 69 44 inlet~;
#X obj 70 131 outlet~;
#X obj 263 31 env~;
#X obj 263 53 dbtorms;
#X connect 0 0 2 0;
#X connect 1 0 0 0;
#X connect 1 0 3 0;
#X connect 3 0 4 0;
#X connect 4 0 0 1;
