#N canvas 1063 137 450 300 10;
#X obj 44 47 inlet;
#X obj 48 75 bng 15 250 50 0 empty empty empty 17 7 0 10 -262144 -1
-1;
#X msg 212 52 1e+007;
#X obj 212 25 loadbang;
#X obj 61 109 random;
#X obj 68 146 /;
#X obj 292 54 t b b;
#X obj 233 169 -;
#X obj 209 135 float \$1;
#X obj 276 135 float \$2;
#X obj 76 201 *;
#X obj 78 223 +;
#X obj 74 248 outlet;
#X connect 0 0 1 0;
#X connect 1 0 4 0;
#X connect 2 0 4 1;
#X connect 2 0 5 1;
#X connect 3 0 2 0;
#X connect 3 0 6 0;
#X connect 4 0 5 0;
#X connect 5 0 10 0;
#X connect 6 0 9 0;
#X connect 6 1 8 0;
#X connect 7 0 10 1;
#X connect 8 0 7 1;
#X connect 8 0 11 1;
#X connect 9 0 7 0;
#X connect 10 0 11 0;
#X connect 11 0 12 0;
