#N canvas 790 43 693 298 10;
#X obj 39 50 inlet~;
#X obj 49 171 outlet~;
#X obj 197 18 inlet;
#X obj 283 13 loadbang;
#X msg 283 35 0;
#X obj 62 140 *~;
#X obj 123 142 *~;
#X obj 203 107 expr if($f1 == 1 \, 1 \, 0) \; if($f1 == 0 \, 1 \, 0)
;
#X obj 202 159 send \$1_thoughGate;
#X obj 212 190 send \$1_bypassGate;
#X obj 123 219 send~ \$1_bypassSignal;
#X connect 0 0 5 0;
#X connect 0 0 6 0;
#X connect 2 0 7 0;
#X connect 3 0 4 0;
#X connect 4 0 7 0;
#X connect 5 0 1 0;
#X connect 6 0 10 0;
#X connect 7 0 5 1;
#X connect 7 0 8 0;
#X connect 7 1 6 1;
#X connect 7 1 9 0;
