#N canvas 53 110 578 417 10;
#X obj 18 8 inlet~;
#X obj 393 12 inlet;
#X obj 393 35 bng 15 250 50 0 empty empty empty 17 7 0 10 -262144 -1
-1;
#X obj 351 68 RandRange 1 127;
#X obj 395 95 RandRange 1 127;
#X obj 447 122 RandRange 1 127;
#X obj 21 213 +~;
#X obj 21 235 +~;
#X obj 21 257 +~;
#X obj 56 143 vcf~;
#X obj 98 154 vcf~;
#X obj 154 170 vcf~;
#X obj 21 279 outlet~;
#X obj 351 90 mtof;
#X obj 395 117 mtof;
#X obj 447 144 mtof;
#X obj 109 65 RandRange 1 3;
#X obj 480 6 loadbang;
#X obj 139 103 RandRange 1 3;
#X obj 237 102 RandRange 1 3;
#X connect 0 0 6 0;
#X connect 0 0 9 0;
#X connect 0 0 10 0;
#X connect 0 0 11 0;
#X connect 1 0 2 0;
#X connect 2 0 3 0;
#X connect 2 0 4 0;
#X connect 2 0 5 0;
#X connect 2 0 16 0;
#X connect 2 0 18 0;
#X connect 2 0 19 0;
#X connect 3 0 13 0;
#X connect 4 0 14 0;
#X connect 5 0 15 0;
#X connect 6 0 7 0;
#X connect 7 0 8 0;
#X connect 8 0 12 0;
#X connect 9 0 6 1;
#X connect 10 0 7 1;
#X connect 11 0 8 1;
#X connect 13 0 9 1;
#X connect 14 0 10 1;
#X connect 15 0 11 1;
#X connect 16 0 9 2;
#X connect 17 0 2 0;
#X connect 18 0 10 2;
#X connect 19 0 11 2;
